<svg xmlns="http://www.w3.org/2000/svg" width="238" height="268" viewBox="0 0 238 268" version="1.1"><path d="M 116.558 12.907 C 116.249 13.405, 116.898 13.578, 117.999 13.290 C 120.334 12.679, 120.629 12, 118.559 12 C 117.766 12, 116.866 12.408, 116.558 12.907 M 122.527 14.315 C 123.612 15.039, 138.787 23.859, 156.250 33.915 L 188 52.199 188 92.574 L 188 132.949 185 134.500 C 183.350 135.353, 182 136.306, 182 136.618 C 182 136.929, 183.463 136.330, 185.250 135.286 L 188.500 133.388 188.747 92.444 L 188.994 51.500 174.747 43.361 C 166.911 38.884, 151.815 30.222, 141.200 24.111 C 130.585 18, 121.598 13, 121.228 13 C 120.858 13, 121.443 13.592, 122.527 14.315 M 110.441 16.555 C 108.577 18.049, 108.589 18.067, 110.750 17.020 C 111.987 16.420, 113 15.720, 113 15.465 C 113 14.700, 112.481 14.921, 110.441 16.555 M 104.750 19.572 C 101.012 21.600, 101.239 22.445, 105 20.500 C 106.650 19.647, 108 18.735, 108 18.474 C 108 17.831, 107.893 17.867, 104.750 19.572 M 98.441 23.555 C 96.577 25.049, 96.589 25.067, 98.750 24.020 C 99.987 23.420, 101 22.720, 101 22.465 C 101 21.700, 100.481 21.921, 98.441 23.555 M 92.570 26.887 C 92.013 27.787, 93.286 29.098, 96 30.418 C 96.825 30.820, 96.600 30.408, 95.500 29.504 C 94.400 28.599, 93.612 27.441, 93.750 26.929 C 94.068 25.748, 93.291 25.720, 92.570 26.887 M 80.750 33.572 C 77.012 35.600, 77.239 36.445, 81 34.500 C 82.650 33.647, 84 32.735, 84 32.474 C 84 31.831, 83.893 31.867, 80.750 33.572 M 100 32.430 C 100 32.705, 100.900 33.411, 102 34 C 103.100 34.589, 104 34.845, 104 34.570 C 104 34.295, 103.100 33.589, 102 33 C 100.900 32.411, 100 32.155, 100 32.430 M 89 34.430 C 89 34.705, 89.900 35.411, 91 36 C 92.100 36.589, 93 36.845, 93 36.570 C 93 36.295, 92.100 35.589, 91 35 C 89.900 34.411, 89 34.155, 89 34.430 M 73.750 37.572 C 70.012 39.600, 70.239 40.445, 74 38.500 C 75.650 37.647, 77 36.735, 77 36.474 C 77 35.831, 76.893 35.867, 73.750 37.572 M 107 36.430 C 107 36.705, 107.900 37.411, 109 38 C 110.100 38.589, 111 38.845, 111 38.570 C 111 38.295, 110.100 37.589, 109 37 C 107.900 36.411, 107 36.155, 107 36.430 M 96 38.430 C 96 38.705, 96.900 39.411, 98 40 C 99.100 40.589, 100 40.845, 100 40.570 C 100 40.295, 99.100 39.589, 98 39 C 96.900 38.411, 96 38.155, 96 38.430 M 112 39.449 C 112 39.724, 113.350 40.647, 115 41.500 C 116.650 42.353, 118 42.826, 118 42.551 C 118 42.276, 116.650 41.353, 115 40.500 C 113.350 39.647, 112 39.174, 112 39.449 M 64.250 43.105 C 61.362 44.788, 59 46.396, 59 46.678 C 59 47.233, 67.893 42.288, 69.450 40.867 C 71.145 39.320, 69.605 39.983, 64.250 43.105 M 103 42.430 C 103 42.705, 103.900 43.411, 105 44 C 106.100 44.589, 107 44.845, 107 44.570 C 107 44.295, 106.100 43.589, 105 43 C 103.900 42.411, 103 42.155, 103 42.430 M 108 45.430 C 108 45.705, 108.900 46.411, 110 47 C 111.100 47.589, 112 47.845, 112 47.570 C 112 47.295, 111.100 46.589, 110 46 C 108.900 45.411, 108 45.155, 108 45.430 M 54.750 48.572 C 51.012 50.600, 51.239 51.445, 55 49.500 C 56.650 48.647, 58 47.735, 58 47.474 C 58 46.831, 57.893 46.867, 54.750 48.572 M 126 47.430 C 126 47.705, 126.900 48.411, 128 49 C 129.100 49.589, 130 49.845, 130 49.570 C 130 49.295, 129.100 48.589, 128 48 C 126.900 47.411, 126 47.155, 126 47.430 M 115 49.430 C 115 49.705, 115.900 50.411, 117 51 C 118.100 51.589, 119 51.845, 119 51.570 C 119 51.295, 118.100 50.589, 117 50 C 115.900 49.411, 115 49.155, 115 49.430 M 47.750 52.572 C 44.012 54.600, 44.239 55.445, 48 53.500 C 49.650 52.647, 51 51.735, 51 51.474 C 51 50.831, 50.893 50.867, 47.750 52.572 M 133 51.430 C 133 51.705, 133.900 52.411, 135 53 C 136.100 53.589, 137 53.845, 137 53.570 C 137 53.295, 136.100 52.589, 135 52 C 133.900 51.411, 133 51.155, 133 51.430 M 122 53.430 C 122 53.705, 122.900 54.411, 124 55 C 125.100 55.589, 126 55.845, 126 55.570 C 126 55.295, 125.100 54.589, 124 54 C 122.900 53.411, 122 53.155, 122 53.430 M 138 54.449 C 138 54.724, 139.350 55.647, 141 56.500 C 142.650 57.353, 144 57.826, 144 57.551 C 144 57.276, 142.650 56.353, 141 55.500 C 139.350 54.647, 138 54.174, 138 54.449 M 38.250 58.105 C 35.362 59.788, 33 61.396, 33 61.678 C 33 62.233, 41.893 57.288, 43.450 55.867 C 45.145 54.320, 43.605 54.983, 38.250 58.105 M 145 58.430 C 145 58.705, 145.900 59.411, 147 60 C 148.100 60.589, 149 60.845, 149 60.570 C 149 60.295, 148.100 59.589, 147 59 C 145.900 58.411, 145 58.155, 145 58.430 M 198 58.270 C 198 58.523, 201.713 60.875, 206.250 63.497 C 210.787 66.118, 216.412 69.372, 218.750 70.727 C 221.088 72.081, 223 72.942, 223 72.639 C 223 72.112, 216.076 67.936, 203.750 61.031 C 200.588 59.259, 198 58.016, 198 58.270 M 134 60.430 C 134 60.705, 134.900 61.411, 136 62 C 137.100 62.589, 138 62.845, 138 62.570 C 138 62.295, 137.100 61.589, 136 61 C 134.900 60.411, 134 60.155, 134 60.430 M 28.750 63.572 C 25.012 65.600, 25.239 66.445, 29 64.500 C 30.650 63.647, 32 62.735, 32 62.474 C 32 61.831, 31.893 61.867, 28.750 63.572 M 152 62.430 C 152 62.705, 152.900 63.411, 154 64 C 155.100 64.589, 156 64.845, 156 64.570 C 156 64.295, 155.100 63.589, 154 63 C 152.900 62.411, 152 62.155, 152 62.430 M 85 64.054 C 87.582 65.816, 94 69.062, 94 68.606 C 94 68.082, 85.011 62.994, 84.124 63.015 C 83.781 63.024, 84.175 63.491, 85 64.054 M 141 64.430 C 141 64.705, 141.900 65.411, 143 66 C 144.100 66.589, 145 66.845, 145 66.570 C 145 66.295, 144.100 65.589, 143 65 C 141.900 64.411, 141 64.155, 141 64.430 M 21.750 67.572 C 18.012 69.600, 18.239 70.445, 22 68.500 C 23.650 67.647, 25 66.735, 25 66.474 C 25 65.831, 24.893 65.867, 21.750 67.572 M 159.847 67.316 C 160.635 68.265, 161.060 80.764, 161.250 108.588 L 161.524 148.500 161.762 107.857 C 161.978 70.960, 161.849 67.156, 160.359 66.584 C 159.063 66.087, 158.955 66.241, 159.847 67.316 M 73.441 69.555 C 71.577 71.049, 71.589 71.067, 73.750 70.020 C 74.987 69.420, 76 68.720, 76 68.465 C 76 67.700, 75.481 67.921, 73.441 69.555 M 148 68.430 C 148 68.705, 148.900 69.411, 150 70 C 151.100 70.589, 152 70.845, 152 70.570 C 152 70.295, 151.100 69.589, 150 69 C 148.900 68.411, 148 68.155, 148 68.430 M 95 69.449 C 95 69.724, 96.350 70.647, 98 71.500 C 99.650 72.353, 101 72.826, 101 72.551 C 101 72.276, 99.650 71.353, 98 70.500 C 96.350 69.647, 95 69.174, 95 69.449 M 16 71 C 15.099 71.582, 14.975 71.975, 15.691 71.985 C 16.346 71.993, 17.160 71.550, 17.500 71 C 18.267 69.758, 17.921 69.758, 16 71 M 82.441 72.555 C 80.561 74.061, 80.568 74.078, 82.657 73.070 C 84.491 72.185, 86.885 73.233, 98.657 80.075 C 106.271 84.500, 111.825 87.476, 111 86.689 C 109.746 85.492, 85.387 71, 84.629 71 C 84.493 71, 83.509 71.700, 82.441 72.555 M 153.997 87.297 L 154.494 103.500 154.774 88.077 C 154.928 79.594, 154.704 72.303, 154.277 71.874 C 153.850 71.445, 153.724 78.386, 153.997 87.297 M 66.441 73.555 C 64.577 75.049, 64.589 75.067, 66.750 74.020 C 67.987 73.420, 69 72.720, 69 72.465 C 69 71.700, 68.481 71.921, 66.441 73.555 M 102.500 73.702 C 103.050 74.270, 105.750 75.993, 108.500 77.532 C 111.250 79.070, 113.050 79.865, 112.500 79.298 C 111.950 78.730, 109.250 77.007, 106.500 75.468 C 103.750 73.930, 101.950 73.135, 102.500 73.702 M 76.750 75.572 C 73.012 77.600, 73.239 78.445, 77 76.500 C 78.650 75.647, 80 74.735, 80 74.474 C 80 73.831, 79.893 73.867, 76.750 75.572 M 69.750 79.572 C 66.012 81.600, 66.239 82.445, 70 80.500 C 71.650 79.647, 73 78.735, 73 78.474 C 73 77.831, 72.893 77.867, 69.750 79.572 M 114 80.338 C 114 80.762, 145.467 99.163, 151 101.975 C 160.437 106.769, 137.610 93.122, 114.750 80.303 C 114.338 80.071, 114 80.087, 114 80.338 M 63.441 83.555 C 61.577 85.049, 61.589 85.067, 63.750 84.020 C 64.987 83.420, 66 82.720, 66 82.465 C 66 81.700, 65.481 81.921, 63.441 83.555 M 47.441 84.555 C 45.577 86.049, 45.589 86.067, 47.750 85.020 C 48.987 84.420, 50 83.720, 50 83.465 C 50 82.700, 49.481 82.921, 47.441 84.555 M 57.750 86.572 C 54.012 88.600, 54.239 89.445, 58 87.500 C 59.650 86.647, 61 85.735, 61 85.474 C 61 84.831, 60.893 84.867, 57.750 86.572 M 40.441 88.555 C 38.577 90.049, 38.589 90.067, 40.750 89.020 C 41.987 88.420, 43 87.720, 43 87.465 C 43 86.700, 42.481 86.921, 40.441 88.555 M 106.750 89.572 C 103.012 91.600, 103.239 92.445, 107 90.500 C 108.650 89.647, 110 88.735, 110 88.474 C 110 87.831, 109.893 87.867, 106.750 89.572 M 50.750 90.572 C 47.012 92.600, 47.239 93.445, 51 91.500 C 52.650 90.647, 54 89.735, 54 89.474 C 54 88.831, 53.893 88.867, 50.750 90.572 M 100.441 93.555 C 98.577 95.049, 98.589 95.067, 100.750 94.020 C 101.987 93.420, 103 92.720, 103 92.465 C 103 91.700, 102.481 91.921, 100.441 93.555 M 44.441 94.555 C 42.577 96.049, 42.589 96.067, 44.750 95.020 C 45.987 94.420, 47 93.720, 47 93.465 C 47 92.700, 46.481 92.921, 44.441 94.555 M 93.441 97.555 C 91.577 99.049, 91.589 99.067, 93.750 98.020 C 94.987 97.420, 96 96.720, 96 96.465 C 96 95.700, 95.481 95.921, 93.441 97.555 M 37.441 98.555 C 35.577 100.049, 35.589 100.067, 37.750 99.020 C 38.987 98.420, 40 97.720, 40 97.465 C 40 96.700, 39.481 96.921, 37.441 98.555 M 21.441 99.555 C 19.577 101.049, 19.589 101.067, 21.750 100.020 C 22.988 99.420, 24 98.720, 24 98.465 C 24 97.700, 23.481 97.921, 21.441 99.555 M 87.750 100.572 C 84.012 102.600, 84.239 103.445, 88 101.500 C 89.650 100.647, 91 99.735, 91 99.474 C 91 98.831, 90.893 98.867, 87.750 100.572 M 31.750 101.572 C 28.012 103.600, 28.239 104.445, 32 102.500 C 33.650 101.647, 35 100.735, 35 100.474 C 35 99.831, 34.893 99.867, 31.750 101.572 M 80.750 104.572 C 77.012 106.600, 77.239 107.445, 81 105.500 C 82.650 104.647, 84 103.735, 84 103.474 C 84 102.831, 83.893 102.867, 80.750 104.572 M 24.750 105.572 C 21.012 107.600, 21.239 108.445, 25 106.500 C 26.650 105.647, 28 104.735, 28 104.474 C 28 103.831, 27.893 103.867, 24.750 105.572 M 74.441 108.555 C 72.577 110.049, 72.589 110.067, 74.750 109.020 C 75.987 108.420, 77 107.720, 77 107.465 C 77 106.700, 76.481 106.921, 74.441 108.555 M 18.441 109.555 C 16.577 111.049, 16.589 111.067, 18.750 110.020 C 19.988 109.420, 21 108.720, 21 108.465 C 21 107.700, 20.481 107.921, 18.441 109.555 M 68.750 111.572 C 65.012 113.600, 65.239 114.445, 69 112.500 C 70.650 111.647, 72 110.735, 72 110.474 C 72 109.831, 71.893 109.867, 68.750 111.572 M 61.750 115.572 C 58.012 117.600, 58.239 118.445, 62 116.500 C 63.650 115.647, 65 114.735, 65 114.474 C 65 113.831, 64.893 113.867, 61.750 115.572 M 72.441 118.555 C 70.577 120.049, 70.589 120.067, 72.750 119.020 C 73.987 118.420, 75 117.720, 75 117.465 C 75 116.700, 74.481 116.921, 72.441 118.555 M 76.238 157.089 L 76 197.679 78.750 198.867 L 81.500 200.055 79.260 198.277 L 77.020 196.500 76.748 156.500 L 76.476 116.500 76.238 157.089 M 54.750 119.572 C 51.012 121.600, 51.239 122.445, 55 120.500 C 56.650 119.647, 58 118.735, 58 118.474 C 58 117.831, 57.893 117.867, 54.750 119.572 M 65.441 122.555 C 63.577 124.049, 63.589 124.067, 65.750 123.020 C 66.987 122.420, 68 121.720, 68 121.465 C 68 120.700, 67.481 120.921, 65.441 122.555 M 48.441 123.555 C 46.577 125.049, 46.589 125.067, 48.750 124.020 C 49.987 123.420, 51 122.720, 51 122.465 C 51 121.700, 50.481 121.921, 48.441 123.555 M 59.750 125.572 C 56.012 127.600, 56.239 128.445, 60 126.500 C 61.650 125.647, 63 124.735, 63 124.474 C 63 123.831, 62.893 123.867, 59.750 125.572 M 43.441 126.555 C 41.577 128.049, 41.589 128.067, 43.750 127.020 C 44.987 126.420, 46 125.720, 46 125.465 C 46 124.700, 45.481 124.921, 43.441 126.555 M 52.250 129.989 L 49 131.971 49 172.426 C 49 194.677, 49.337 213.091, 49.750 213.346 C 50.163 213.601, 50.378 195.419, 50.228 172.942 L 49.956 132.074 52.978 130.511 C 54.640 129.652, 56 128.735, 56 128.474 C 56 127.754, 55.752 127.854, 52.250 129.989 M 178.441 138.555 C 176.577 140.049, 176.589 140.067, 178.750 139.020 C 179.988 138.420, 181 137.720, 181 137.465 C 181 136.700, 180.481 136.921, 178.441 138.555 M 190.441 140.555 C 188.577 142.049, 188.589 142.067, 190.750 141.020 C 191.988 140.420, 193 139.720, 193 139.465 C 193 138.700, 192.481 138.921, 190.441 140.555 M 172.750 141.572 C 169.012 143.600, 169.239 144.445, 173 142.500 C 174.650 141.647, 176 140.735, 176 140.474 C 176 139.831, 175.893 139.867, 172.750 141.572 M 184.750 143.572 C 181.012 145.600, 181.239 146.445, 185 144.500 C 186.650 143.647, 188 142.735, 188 142.474 C 188 141.831, 187.893 141.867, 184.750 143.572 M 165.750 145.572 C 162.012 147.600, 162.239 148.445, 166 146.500 C 167.650 145.647, 169 144.735, 169 144.474 C 169 143.831, 168.893 143.867, 165.750 145.572 M 177.750 147.572 C 174.012 149.600, 174.239 150.445, 178 148.500 C 179.650 147.647, 181 146.735, 181 146.474 C 181 145.831, 180.893 145.867, 177.750 147.572 M 171.441 151.555 C 169.577 153.049, 169.589 153.067, 171.750 152.020 C 172.988 151.420, 174 150.720, 174 150.465 C 174 149.700, 173.481 149.921, 171.441 151.555 M 165.750 154.572 C 162.012 156.600, 162.239 157.445, 166 155.500 C 167.650 154.647, 169 153.735, 169 153.474 C 169 152.831, 168.893 152.867, 165.750 154.572 M 220.441 154.555 C 218.577 156.049, 218.589 156.067, 220.750 155.020 C 221.988 154.420, 223 153.720, 223 153.465 C 223 152.700, 222.481 152.921, 220.441 154.555 M 214.750 157.572 C 211.012 159.600, 211.239 160.445, 215 158.500 C 216.650 157.647, 218 156.735, 218 156.474 C 218 155.831, 217.893 155.867, 214.750 157.572 M 158.750 158.572 C 155.012 160.600, 155.239 161.445, 159 159.500 C 160.650 158.647, 162 157.735, 162 157.474 C 162 156.831, 161.893 156.867, 158.750 158.572 M 208.441 161.555 C 206.577 163.049, 206.589 163.067, 208.750 162.020 C 209.988 161.420, 211 160.720, 211 160.465 C 211 159.700, 210.481 159.921, 208.441 161.555 M 152.441 162.555 C 150.577 164.049, 150.589 164.067, 152.750 163.020 C 153.988 162.420, 155 161.720, 155 161.465 C 155 160.700, 154.481 160.921, 152.441 162.555 M 83.017 177.750 L 83.033 193.500 111.693 210 C 147.222 230.455, 152.707 233.531, 151.703 232.440 C 151.265 231.963, 135.965 222.946, 117.703 212.402 L 84.500 193.230 84.500 177.614 C 84.500 169.026, 84.162 161.999, 83.750 161.999 C 83.338 162, 83.007 169.088, 83.017 177.750 M 217.441 164.555 C 215.577 166.049, 215.589 166.067, 217.750 165.020 C 218.988 164.420, 220 163.720, 220 163.465 C 220 162.700, 219.481 162.921, 217.441 164.555 M 201.441 165.555 C 199.577 167.049, 199.589 167.067, 201.750 166.020 C 202.988 165.420, 204 164.720, 204 164.465 C 204 163.700, 203.481 163.921, 201.441 165.555 M 90 165.430 C 90 165.705, 90.900 166.411, 92 167 C 93.100 167.589, 94 167.845, 94 167.570 C 94 167.295, 93.100 166.589, 92 166 C 90.900 165.411, 90 165.155, 90 165.430 M 145.441 166.555 C 143.577 168.049, 143.589 168.067, 145.750 167.020 C 146.988 166.420, 148 165.720, 148 165.465 C 148 164.700, 147.481 164.921, 145.441 166.555 M 211.750 167.572 C 208.012 169.600, 208.239 170.445, 212 168.500 C 213.650 167.647, 215 166.735, 215 166.474 C 215 165.831, 214.893 165.867, 211.750 167.572 M 195.750 168.572 C 192.012 170.600, 192.239 171.445, 196 169.500 C 197.650 168.647, 199 167.735, 199 167.474 C 199 166.831, 198.893 166.867, 195.750 168.572 M 139.750 169.572 C 136.012 171.600, 136.239 172.445, 140 170.500 C 141.650 169.647, 143 168.735, 143 168.474 C 143 167.831, 142.893 167.867, 139.750 169.572 M 97 169.430 C 97 169.705, 97.900 170.411, 99 171 C 100.100 171.589, 101 171.845, 101 171.570 C 101 171.295, 100.100 170.589, 99 170 C 97.900 169.411, 97 169.155, 97 169.430 M 204.750 171.572 C 201.012 173.600, 201.239 174.445, 205 172.500 C 206.650 171.647, 208 170.735, 208 170.474 C 208 169.831, 207.893 169.867, 204.750 171.572 M 188.750 172.572 C 185.012 174.600, 185.239 175.445, 189 173.500 C 190.650 172.647, 192 171.735, 192 171.474 C 192 170.831, 191.893 170.867, 188.750 172.572 M 102 172.430 C 102 172.705, 102.900 173.411, 104 174 C 105.100 174.589, 106 174.845, 106 174.570 C 106 174.295, 105.100 173.589, 104 173 C 102.900 172.411, 102 172.155, 102 172.430 M 132.750 173.572 C 129.012 175.600, 129.239 176.445, 133 174.500 C 134.650 173.647, 136 172.735, 136 172.474 C 136 171.831, 135.893 171.867, 132.750 173.572 M 195.250 177.105 C 192.363 178.788, 190 180.396, 190 180.678 C 190 181.233, 198.893 176.288, 200.450 174.867 C 202.145 173.320, 200.605 173.983, 195.250 177.105 M 182.441 176.555 C 180.577 178.049, 180.589 178.067, 182.750 177.020 C 183.988 176.420, 185 175.720, 185 175.465 C 185 174.700, 184.481 174.921, 182.441 176.555 M 109 176.430 C 109 176.705, 109.900 177.411, 111 178 C 112.100 178.589, 113 178.845, 113 178.570 C 113 178.295, 112.100 177.589, 111 177 C 109.900 176.411, 109 176.155, 109 176.430 M 127.250 176.662 C 125.631 177.316, 125.649 178.651, 127.286 179.279 C 128.053 179.574, 128.571 179.013, 128.571 177.886 C 128.571 176.849, 128.555 176.036, 128.536 176.079 C 128.516 176.122, 127.938 176.385, 127.250 176.662 M 176.750 179.572 C 173.012 181.600, 173.239 182.445, 177 180.500 C 178.650 179.647, 180 178.735, 180 178.474 C 180 177.831, 179.893 177.867, 176.750 179.572 M 116 180.430 C 116 180.705, 116.900 181.411, 118 182 C 119.100 182.589, 120 182.845, 120 182.570 C 120 182.295, 119.100 181.589, 118 181 C 116.900 180.411, 116 180.155, 116 180.430 M 130 180.430 C 130 180.705, 130.900 181.411, 132 182 C 133.100 182.589, 134 182.845, 134 182.570 C 134 182.295, 133.100 181.589, 132 181 C 130.900 180.411, 130 180.155, 130 180.430 M 185.750 182.572 C 182.012 184.600, 182.239 185.445, 186 183.500 C 187.650 182.647, 189 181.735, 189 181.474 C 189 180.831, 188.893 180.867, 185.750 182.572 M 169.750 183.572 C 166.012 185.600, 166.239 186.445, 170 184.500 C 171.650 183.647, 173 182.735, 173 182.474 C 173 181.831, 172.893 181.867, 169.750 183.572 M 137 184.430 C 137 184.705, 137.900 185.411, 139 186 C 140.100 186.589, 141 186.845, 141 186.570 C 141 186.295, 140.100 185.589, 139 185 C 137.900 184.411, 137 184.155, 137 184.430 M 178.750 186.572 C 175.012 188.600, 175.239 189.445, 179 187.500 C 180.650 186.647, 182 185.735, 182 185.474 C 182 184.831, 181.893 184.867, 178.750 186.572 M 162.750 187.572 C 159.012 189.600, 159.239 190.445, 163 188.500 C 164.650 187.647, 166 186.735, 166 186.474 C 166 185.831, 165.893 185.867, 162.750 187.572 M 128 187.430 C 128 187.705, 128.900 188.411, 130 189 C 131.100 189.589, 132 189.845, 132 189.570 C 132 189.295, 131.100 188.589, 130 188 C 128.900 187.411, 128 187.155, 128 187.430 M 144 188.430 C 144 188.705, 144.900 189.411, 146 190 C 147.100 190.589, 148 190.845, 148 190.570 C 148 190.295, 147.100 189.589, 146 189 C 144.900 188.411, 144 188.155, 144 188.430 M 169.250 192.105 C 166.363 193.788, 164 195.396, 164 195.678 C 164 196.233, 172.893 191.288, 174.450 189.867 C 176.145 188.320, 174.605 188.983, 169.250 192.105 M 156.441 191.555 C 154.577 193.049, 154.589 193.067, 156.750 192.020 C 157.988 191.420, 159 190.720, 159 190.465 C 159 189.700, 158.481 189.921, 156.441 191.555 M 135 191.430 C 135 191.705, 135.900 192.411, 137 193 C 138.100 193.589, 139 193.845, 139 193.570 C 139 193.295, 138.100 192.589, 137 192 C 135.900 191.411, 135 191.155, 135 191.430 M 150.441 192.445 C 151.509 193.300, 152.821 194, 153.358 194 C 154.628 194, 154.061 193.538, 151 192.080 C 148.643 190.958, 148.611 190.978, 150.441 192.445 M 18 194.430 C 18 194.705, 18.900 195.411, 20 196 C 21.100 196.589, 22 196.845, 22 196.570 C 22 196.295, 21.100 195.589, 20 195 C 18.900 194.411, 18 194.155, 18 194.430 M 142 195.430 C 142 195.705, 142.900 196.411, 144 197 C 145.100 197.589, 146 197.845, 146 197.570 C 146 197.295, 145.100 196.589, 144 196 C 142.900 195.411, 142 195.155, 142 195.430 M 216.441 196.555 C 214.577 198.049, 214.589 198.067, 216.750 197.020 C 217.988 196.420, 219 195.720, 219 195.465 C 219 194.700, 218.481 194.921, 216.441 196.555 M 159.750 197.572 C 156.012 199.600, 156.239 200.445, 160 198.500 C 161.650 197.647, 163 196.735, 163 196.474 C 163 195.831, 162.893 195.867, 159.750 197.572 M 25 198.430 C 25 198.705, 25.900 199.411, 27 200 C 28.100 200.589, 29 200.845, 29 200.570 C 29 200.295, 28.100 199.589, 27 199 C 25.900 198.411, 25 198.155, 25 198.430 M 147 198.430 C 147 198.705, 147.900 199.411, 149 200 C 150.100 200.589, 151 200.845, 151 200.570 C 151 200.295, 150.100 199.589, 149 199 C 147.900 198.411, 147 198.155, 147 198.430 M 82 200.449 C 82 200.724, 83.350 201.647, 85 202.500 C 86.650 203.353, 88 203.826, 88 203.551 C 88 203.276, 86.650 202.353, 85 201.500 C 83.350 200.647, 82 200.174, 82 200.449 M 153.500 201 C 151.870 201.701, 151.812 201.872, 153.191 201.930 C 154.121 201.968, 155.160 201.550, 155.500 201 C 156.211 199.850, 156.176 199.850, 153.500 201 M 30 201.449 C 30 201.724, 31.350 202.647, 33 203.500 C 34.650 204.353, 36 204.826, 36 204.551 C 36 204.276, 34.650 203.353, 33 202.500 C 31.350 201.647, 30 201.174, 30 201.449 M 89 204.357 C 89 204.619, 94.287 207.854, 100.750 211.547 C 107.213 215.239, 112.838 218.453, 113.250 218.689 C 113.662 218.925, 114 218.904, 114 218.643 C 114 218.381, 108.713 215.146, 102.250 211.453 C 95.787 207.761, 90.162 204.547, 89.750 204.311 C 89.338 204.075, 89 204.096, 89 204.357 M 37 205.430 C 37 205.705, 37.900 206.411, 39 207 C 40.100 207.589, 41 207.845, 41 207.570 C 41 207.295, 40.100 206.589, 39 206 C 37.900 205.411, 37 205.155, 37 205.430 M 197.441 207.555 C 195.577 209.049, 195.589 209.067, 197.750 208.020 C 198.988 207.420, 200 206.720, 200 206.465 C 200 205.700, 199.481 205.921, 197.441 207.555 M 190.441 211.555 C 188.577 213.049, 188.589 213.067, 190.750 212.020 C 191.988 211.420, 193 210.720, 193 210.465 C 193 209.700, 192.481 209.921, 190.441 211.555 M 52 214.430 C 52 214.705, 52.900 215.411, 54 216 C 55.100 216.589, 56 216.845, 56 216.570 C 56 216.295, 55.100 215.589, 54 215 C 52.900 214.411, 52 214.155, 52 214.430 M 178.441 218.555 C 176.577 220.049, 176.589 220.067, 178.750 219.020 C 179.988 218.420, 181 217.720, 181 217.465 C 181 216.700, 180.481 216.921, 178.441 218.555 M 59 218.430 C 59 218.705, 59.900 219.411, 61 220 C 62.100 220.589, 63 220.845, 63 220.570 C 63 220.295, 62.100 219.589, 61 219 C 59.900 218.411, 59 218.155, 59 218.430 M 115 219.353 C 115 219.731, 120.678 223.135, 132.250 229.693 C 132.662 229.927, 133 229.906, 133 229.647 C 133 229.269, 127.322 225.865, 115.750 219.307 C 115.338 219.073, 115 219.094, 115 219.353 M 64 221.449 C 64 221.724, 65.350 222.647, 67 223.500 C 68.650 224.353, 70 224.826, 70 224.551 C 70 224.276, 68.650 223.353, 67 222.500 C 65.350 221.647, 64 221.174, 64 221.449 M 171.441 222.555 C 169.577 224.049, 169.589 224.067, 171.750 223.020 C 172.988 222.420, 174 221.720, 174 221.465 C 174 220.700, 173.481 220.921, 171.441 222.555 M 71 225.430 C 71 225.705, 71.900 226.411, 73 227 C 74.100 227.589, 75 227.845, 75 227.570 C 75 227.295, 74.100 226.589, 73 226 C 71.900 225.411, 71 225.155, 71 225.430 M 78 229.430 C 78 229.705, 78.900 230.411, 80 231 C 81.100 231.589, 82 231.845, 82 231.570 C 82 231.295, 81.100 230.589, 80 230 C 78.900 229.411, 78 229.155, 78 229.430 M 134 230.449 C 134 230.724, 135.350 231.647, 137 232.500 C 138.650 233.353, 140 233.826, 140 233.551 C 140 233.276, 138.650 232.353, 137 231.500 C 135.350 230.647, 134 230.174, 134 230.449 M 85 233.430 C 85 233.705, 85.900 234.411, 87 235 C 88.100 235.589, 89 235.845, 89 235.570 C 89 235.295, 88.100 234.589, 87 234 C 85.900 233.411, 85 233.155, 85 233.430 M 142.500 235.515 C 143.600 236.410, 144.376 237.593, 144.225 238.145 C 144.074 238.697, 144.419 238.859, 144.992 238.505 C 146.343 237.670, 145.445 236.280, 142.694 234.950 C 140.537 233.907, 140.534 233.917, 142.500 235.515 M 90 236.449 C 90 236.724, 91.350 237.647, 93 238.500 C 94.650 239.353, 96 239.826, 96 239.551 C 96 239.276, 94.650 238.353, 93 237.500 C 91.350 236.647, 90 236.174, 90 236.449 M 139.750 240.572 C 136.012 242.600, 136.239 243.445, 140 241.500 C 141.650 240.647, 143 239.735, 143 239.474 C 143 238.831, 142.893 238.867, 139.750 240.572 M 97 240.430 C 97 240.705, 97.900 241.411, 99 242 C 100.100 242.589, 101 242.845, 101 242.570 C 101 242.295, 100.100 241.589, 99 241 C 97.900 240.411, 97 240.155, 97 240.430 M 133.441 244.555 C 131.577 246.049, 131.589 246.067, 133.750 245.020 C 134.988 244.420, 136 243.720, 136 243.465 C 136 242.700, 135.481 242.921, 133.441 244.555 M 104 244.430 C 104 244.705, 104.900 245.411, 106 246 C 107.100 246.589, 108 246.845, 108 246.570 C 108 246.295, 107.100 245.589, 106 245 C 104.900 244.411, 104 244.155, 104 244.430 M 109 247.449 C 109 247.724, 110.350 248.647, 112 249.500 C 113.650 250.353, 115 250.826, 115 250.551 C 115 250.276, 113.650 249.353, 112 248.500 C 110.350 247.647, 109 247.174, 109 247.449 M 126.441 248.555 C 124.577 250.049, 124.589 250.067, 126.750 249.020 C 127.987 248.420, 129 247.720, 129 247.465 C 129 246.700, 128.481 246.921, 126.441 248.555 M 120.500 251.536 C 118.850 252.292, 118.201 252.930, 119.059 252.955 C 119.916 252.980, 121.491 252.339, 122.559 251.532 C 124.929 249.739, 124.423 249.740, 120.500 251.536" stroke="none" fill="#926e64" fill-rule="evenodd"/><path d="M 105.156 20.229 C 95.076 26.076, 93.091 27.594, 94.334 28.502 C 95.171 29.115, 110.723 38.139, 128.894 48.558 L 161.932 67.500 161.966 107.718 L 162 147.936 174.750 140.529 L 187.500 133.121 187.761 92.665 L 188.022 52.208 154.079 32.604 C 135.410 21.822, 119.542 13.015, 118.817 13.034 C 118.093 13.053, 111.945 16.290, 105.156 20.229 M 49.750 52.390 L 15 72.479 15 87.799 C 15 96.224, 15.338 102.926, 15.750 102.692 C 16.163 102.458, 31.860 93.418, 50.633 82.603 L 84.766 62.939 113.633 79.586 C 129.510 88.741, 145.088 97.741, 148.250 99.585 L 154 102.937 154 87.567 L 154 72.196 119.750 52.465 C 100.912 41.613, 85.275 32.637, 85 32.518 C 84.725 32.399, 68.863 41.341, 49.750 52.390 M 195.761 98.161 L 195.500 138.323 162 157.677 C 143.575 168.321, 128.365 177.427, 128.201 177.912 C 127.951 178.649, 151.748 193, 153.219 193 C 153.483 193, 169.180 184.059, 188.100 173.131 L 222.500 153.262 222.761 113.240 L 223.023 73.218 209.928 65.609 C 202.727 61.424, 196.652 58, 196.428 58 C 196.205 58, 195.905 76.073, 195.761 98.161 M 49.750 92.117 L 15 112.192 15.035 152.346 L 15.070 192.500 28.524 200.138 L 41.978 207.775 42.239 167.321 L 42.500 126.868 62 115.593 C 72.725 109.392, 88.168 100.473, 96.318 95.773 L 111.136 87.228 98.350 79.864 C 91.318 75.814, 85.325 72.397, 85.032 72.271 C 84.740 72.145, 68.863 81.076, 49.750 92.117 M 62.750 124.798 L 50 132.200 50 172.502 L 50 212.804 83.957 232.402 C 102.633 243.181, 118.448 252, 119.100 252 C 119.753 252, 125.896 248.767, 132.752 244.816 C 142.986 238.916, 144.941 237.430, 143.680 236.508 C 142.835 235.890, 127.281 226.861, 109.115 216.442 L 76.085 197.500 75.793 157.448 L 75.500 117.396 62.750 124.798 M 190 181.025 C 172.125 191.416, 156.529 200.440, 155.342 201.078 C 153.426 202.109, 149.478 200.095, 120.040 183.068 C 101.810 172.524, 86.231 163.642, 85.421 163.331 C 84.154 162.845, 83.986 164.913, 84.223 177.994 L 84.500 193.221 118.901 213.104 L 153.303 232.986 188.151 212.856 L 223 192.726 223 177.363 C 223 168.913, 222.887 162.030, 222.750 162.066 C 222.613 162.103, 207.875 170.634, 190 181.025" stroke="none" fill="#fb9b64" fill-rule="evenodd"/></svg>